<svg id="stripe-pattern-svg" width="100%" height="100%"
  xmlns="http://www.w3.org/2000/svg">

  <style type="text/css">
    @keyframes fillPulse {
      0% {
        fill: rgba(255, 255, 255, 0.2);
      }

      100% {
        fill: rgba(255, 255, 255, 0.32);
      }
    }
  </style>

  <defs>
    <pattern id="stripe-pattern" patternUnits="userSpaceOnUse" width="31.25"
      height="20" fill="rgba(255, 255, 255, 0.2)">
      <path stroke-width="2" d="
        M.162 1.593
        c-.054 0-.108.008-.162.009
        v8.58
        c.055-.002.107-.017.163-.017 1.395 0 2.68.567 3.62 1.598
        l2.049 2.248
        a13.497 13.497 0 0 0 9.954 4.396
        c3.78 0 7.408-1.603 9.954-4.396
        l2.051-2.25
        a4.832 4.832 0 0 1 3.459-1.581
        V1.6
        a13.493 13.493 0 0 0-9.794 4.388
        l-2.05 2.25
        a4.844 4.844 0 0 1-3.62 1.597 4.84 4.84 0 0 1-3.619-1.598
        L10.118 5.99
        A13.498 13.498 0 0 0 .162 1.593
        z" />

      <animateTransform attributeName="patternTransform" type="translate"
        from="0 0" to="31.25 0" dur="4s" repeatCount="indefinite" />

      <animate attributeName="fill"
        values="rgba(255, 255, 255, 0.2);rgba(255, 255, 255, 0.32);rgba(255, 255, 255, 0.2)"
        dur="2s" repeatCount="indefinite" />
    </pattern>
  </defs>

  <rect id="output" width="100%" height="100%" fill="url(#stripe-pattern)" />
</svg>
